<?xml version="1.0" encoding="UTF-8" standalone="no"?>
<svg
   width="16"
   height="16"
   fill="currentColor"
   class="bi bi-map-fill"
   viewBox="0 0 16 16"
   version="1.1"
   id="svg4"
   sodipodi:docname="map-fill.svg"
   inkscape:version="1.2.2 (b0a8486541, 2022-12-01)"
   xmlns:inkscape="http://www.inkscape.org/namespaces/inkscape"
   xmlns:sodipodi="http://sodipodi.sourceforge.net/DTD/sodipodi-0.dtd"
   xmlns="http://www.w3.org/2000/svg"
   xmlns:svg="http://www.w3.org/2000/svg">
  <defs
     id="defs8" />
  <sodipodi:namedview
     id="namedview6"
     pagecolor="#ffffff"
     bordercolor="#000000"
     borderopacity="0.25"
     inkscape:showpageshadow="2"
     inkscape:pageopacity="0.0"
     inkscape:pagecheckerboard="0"
     inkscape:deskcolor="#d1d1d1"
     showgrid="false"
     inkscape:zoom="51.6875"
     inkscape:cx="5.7750907"
     inkscape:cy="8.0096735"
     inkscape:window-width="1920"
     inkscape:window-height="1007"
     inkscape:window-x="0"
     inkscape:window-y="0"
     inkscape:window-maximized="1"
     inkscape:current-layer="svg4" />
  <path
     fill-rule="evenodd"
     d="M16 .5a.5.5 0 0 0-.598-.49L10.5.99 5.598.01a.5.5 0 0 0-.196 0l-5 1A.5.5 0 0 0 0 1.5v14a.5.5 0 0 0 .598.49l4.902-.98 4.902.98a.502.502 0 0 0 .196 0l5-1A.5.5 0 0 0 16 14.5V.5zM5 14.09V1.11l.5-.1.5.1v12.98l-.402-.08a.498.498 0 0 0-.196 0L5 14.09zm5 .8V1.91l.402.08a.5.5 0 0 0 .196 0L11 1.91v12.98l-.5.1-.5-.1z"
     id="path2"
     style="fill:#a1063b;fill-opacity:1" />
</svg>
