<?xml version="1.0" encoding="UTF-8" standalone="no"?>
<svg
   width="16"
   height="16"
   fill="currentColor"
   class="bi bi-postage-heart-fill"
   viewBox="0 0 16 16"
   version="1.1"
   id="svg1366"
   sodipodi:docname="postage-heart-fill.svg"
   inkscape:version="1.2.2 (b0a8486541, 2022-12-01)"
   xmlns:inkscape="http://www.inkscape.org/namespaces/inkscape"
   xmlns:sodipodi="http://sodipodi.sourceforge.net/DTD/sodipodi-0.dtd"
   xmlns="http://www.w3.org/2000/svg"
   xmlns:svg="http://www.w3.org/2000/svg">
  <defs
     id="defs1370" />
  <sodipodi:namedview
     id="namedview1368"
     pagecolor="#ffffff"
     bordercolor="#000000"
     borderopacity="0.25"
     inkscape:showpageshadow="2"
     inkscape:pageopacity="0.0"
     inkscape:pagecheckerboard="0"
     inkscape:deskcolor="#d1d1d1"
     showgrid="false"
     inkscape:zoom="51.6875"
     inkscape:cx="5.7750907"
     inkscape:cy="8.0096735"
     inkscape:window-width="1920"
     inkscape:window-height="1007"
     inkscape:window-x="0"
     inkscape:window-y="0"
     inkscape:window-maximized="1"
     inkscape:current-layer="svg1366" />
  <path
     d="M4.5 3a.5.5 0 0 0-.5.5v9a.5.5 0 0 0 .5.5h7a.5.5 0 0 0 .5-.5v-9a.5.5 0 0 0-.5-.5h-7ZM8 11C2.175 7.236 6.336 4.31 8 5.982 9.664 4.309 13.825 7.236 8 11Z"
     id="path1362"
     style="fill:#a1063b;fill-opacity:1" />
  <path
     d="M4.5 0a1 1 0 0 1-2 0H1v1a1 1 0 0 1 0 2v1a1 1 0 0 1 0 2v1a1 1 0 0 1 0 2v1a1 1 0 1 1 0 2v1a1 1 0 1 1 0 2v1h1.5a1 1 0 1 1 2 0h1a1 1 0 1 1 2 0h1a1 1 0 1 1 2 0h1a1 1 0 1 1 2 0H15v-1a1 1 0 1 1 0-2v-1a1 1 0 1 1 0-2V9a1 1 0 1 1 0-2V6a1 1 0 1 1 0-2V3a1 1 0 1 1 0-2V0h-1.5a1 1 0 1 1-2 0h-1a1 1 0 1 1-2 0h-1a1 1 0 0 1-2 0h-1ZM4 14a1 1 0 0 1-1-1V3a1 1 0 0 1 1-1h8a1 1 0 0 1 1 1v10a1 1 0 0 1-1 1H4Z"
     id="path1364"
     style="fill:#a1063b;fill-opacity:1" />
</svg>
